<svg width="167" height="52" viewBox="0 0 167 52" fill="none" xmlns="http://www.w3.org/2000/svg">
<mask id="mask0_3167_370" style="mask-type:alpha" maskUnits="userSpaceOnUse" x="6" y="5" width="40" height="42">
<path d="M21 6.78592C24.094 4.99959 27.906 4.99959 31 6.78592L40.0526 12.0124C43.1466 13.7987 45.0526 17.1 45.0526 20.6727V31.1257C45.0526 34.6983 43.1466 37.9996 40.0526 39.7859L31 45.0124C27.906 46.7987 24.094 46.7987 21 45.0124L11.9474 39.7859C8.85343 37.9996 6.94744 34.6983 6.94744 31.1257V20.6727C6.94744 17.1 8.85343 13.7987 11.9474 12.0124L21 6.78592Z" fill="#C4C4C4"/>
</mask>
<g mask="url(#mask0_3167_370)">
<path d="M21 6.78592C24.094 4.99959 27.906 4.99959 31 6.78592L40.0526 12.0124C43.1466 13.7987 45.0526 17.1 45.0526 20.6727V31.1257C45.0526 34.6983 43.1466 37.9996 40.0526 39.7859L31 45.0124C27.906 46.7987 24.094 46.7987 21 45.0124L11.9474 39.7859C8.85343 37.9996 6.94744 34.6983 6.94744 31.1257V20.6727C6.94744 17.1 8.85343 13.7987 11.9474 12.0124L21 6.78592Z" fill="#EA1D5D"/>
<path d="M18.5001 17.117C17.6716 17.117 17.0001 17.7886 17.0001 18.617V26.0188C17 26.0277 17.0001 26.0365 17.0002 26.0454C17.0092 27.8251 17.5456 29.5621 18.5416 31.0369C19.5376 32.5118 20.9485 33.6582 22.596 34.3313C24.2434 35.0044 26.0535 35.174 27.7973 34.8186C29.5412 34.4633 31.1405 33.5989 32.3931 32.3347C33.6457 31.0706 34.4955 29.4634 34.8349 27.7163C35.1743 25.9693 34.9882 24.1609 34.2999 22.5197C33.6118 20.8784 32.4525 19.4781 30.9686 18.4957C29.4847 17.5132 27.7429 16.9926 25.9632 17C25.7659 17.0008 25.5706 17.0406 25.3885 17.117C25.2066 17.1934 25.0414 17.3048 24.9024 17.4451C24.7636 17.5853 24.6536 17.7515 24.5789 17.9342C24.5042 18.1169 24.4663 18.3125 24.4671 18.51C24.4681 18.7073 24.5079 18.9026 24.5843 19.0845C24.6607 19.2665 24.7722 19.4316 24.9123 19.5707C25.0525 19.7095 25.2187 19.8195 25.4014 19.8942C25.5842 19.9688 25.7798 20.0067 25.9771 20.0059C27.1634 20.0006 28.3248 20.3471 29.3141 21.0018C30.3035 21.6564 31.0765 22.5898 31.5354 23.6838C31.9944 24.7777 32.1187 25.9832 31.8925 27.1478C31.6664 28.3124 31.1 29.3837 30.265 30.2265C29.4299 31.0691 28.3638 31.6453 27.2013 31.8821C26.0388 32.1189 24.8322 32.0057 23.7341 31.5568C22.636 31.1079 21.6957 30.3435 21.032 29.3602C20.3683 28.3768 20.0112 27.2182 20.0056 26.0319C20.0058 25.9872 20.0039 25.9426 20.0001 25.8983V18.617C20.0001 17.7886 19.3285 17.117 18.5001 17.117Z" fill="white"/>
<path d="M27.8852 24.4321C28.8387 25.3857 28.8387 26.9316 27.8851 27.8852C26.9316 28.8388 25.3856 28.8388 24.432 27.8853C23.4785 26.9317 23.4785 25.3857 24.432 24.4321C25.3856 23.4785 26.9316 23.4786 27.8852 24.4321Z" fill="white"/>
<path d="M18.5001 17.117C17.6716 17.117 17.0001 17.7886 17.0001 18.617V26.0188C17 26.0277 17.0001 26.0365 17.0002 26.0454C17.0092 27.8251 17.5456 29.5621 18.5416 31.0369C19.5376 32.5118 20.9485 33.6582 22.596 34.3313C24.2434 35.0044 26.0535 35.174 27.7973 34.8186C29.5412 34.4633 31.1405 33.5989 32.3931 32.3347C33.6457 31.0706 34.4955 29.4634 34.8349 27.7163C35.1743 25.9693 34.9882 24.1609 34.2999 22.5197C33.6118 20.8784 32.4525 19.4781 30.9686 18.4957C29.4847 17.5132 27.7429 16.9926 25.9632 17C25.7659 17.0008 25.5706 17.0406 25.3885 17.117C25.2066 17.1934 25.0414 17.3048 24.9024 17.4451C24.7636 17.5853 24.6536 17.7515 24.5789 17.9342C24.5042 18.1169 24.4663 18.3125 24.4671 18.51C24.4681 18.7073 24.5079 18.9026 24.5843 19.0845C24.6607 19.2665 24.7722 19.4316 24.9123 19.5707C25.0525 19.7095 25.2187 19.8195 25.4014 19.8942C25.5842 19.9688 25.7798 20.0067 25.9771 20.0059C27.1634 20.0006 28.3248 20.3471 29.3141 21.0018C30.3035 21.6564 31.0765 22.5898 31.5354 23.6838C31.9944 24.7777 32.1187 25.9832 31.8925 27.1478C31.6664 28.3124 31.1 29.3837 30.265 30.2265C29.4299 31.0691 28.3638 31.6453 27.2013 31.8821C26.0388 32.1189 24.8322 32.0057 23.7341 31.5568C22.636 31.1079 21.6957 30.3435 21.032 29.3602C20.3683 28.3768 20.0112 27.2182 20.0056 26.0319C20.0058 25.9872 20.0039 25.9426 20.0001 25.8983V18.617C20.0001 17.7886 19.3285 17.117 18.5001 17.117Z" stroke="white" stroke-width="0.8"/>
<path d="M27.8852 24.4321C28.8387 25.3857 28.8387 26.9316 27.8851 27.8852C26.9316 28.8388 25.3856 28.8388 24.432 27.8853C23.4785 26.9317 23.4785 25.3857 24.432 24.4321C25.3856 23.4785 26.9316 23.4786 27.8852 24.4321Z" stroke="white" stroke-width="0.8"/>
</g>
<path d="M63.1055 34.7734C61.8932 34.7734 60.8952 34.4453 60.1113 33.7891C59.3366 33.1237 58.7305 32.235 58.293 31.123C57.8646 30.002 57.5592 28.7533 57.377 27.377V26.8164C57.5592 25.4036 57.8646 24.1413 58.293 23.0293C58.7214 21.9173 59.3229 21.0423 60.0977 20.4043C60.8815 19.7572 61.875 19.4336 63.0781 19.4336C64.3815 19.4336 65.457 19.7572 66.3047 20.4043C67.1615 21.0514 67.7995 21.9401 68.2188 23.0703C68.6471 24.1914 68.8613 25.4857 68.8613 26.9531V27.2402C68.8613 28.7077 68.6471 30.0111 68.2188 31.1504C67.7995 32.2806 67.166 33.1693 66.3184 33.8164C65.4707 34.4544 64.3997 34.7734 63.1055 34.7734ZM55.5176 34.5V13.5H59.4961V31.0684L59.0996 34.5H55.5176ZM62.1074 31.5605C62.8457 31.5605 63.4154 31.3737 63.8164 31C64.2174 30.6263 64.4954 30.1159 64.6504 29.4688C64.8053 28.8125 64.8828 28.0697 64.8828 27.2402V26.9531C64.8828 26.1693 64.8008 25.4538 64.6367 24.8066C64.4818 24.1595 64.2038 23.64 63.8027 23.248C63.4017 22.8561 62.8275 22.6602 62.0801 22.6602C61.5514 22.6602 61.1003 22.7467 60.7266 22.9199C60.3529 23.0931 60.0475 23.3392 59.8105 23.6582C59.5736 23.9772 59.3913 24.36 59.2637 24.8066C59.1452 25.2533 59.0723 25.75 59.0449 26.2969V27.9102C59.0814 28.6302 59.2044 29.2637 59.4141 29.8105C59.6237 30.3574 59.9473 30.7858 60.3848 31.0957C60.8223 31.4056 61.3965 31.5605 62.1074 31.5605ZM75.2734 34.5H71.2949V19.707H75.0547L75.2734 23.002V34.5ZM79.6211 23.4258C79.4206 23.3984 79.1836 23.3757 78.9102 23.3574C78.6458 23.3301 78.4089 23.3164 78.1992 23.3164C77.4701 23.3164 76.8685 23.4349 76.3945 23.6719C75.9206 23.9089 75.5651 24.2507 75.3281 24.6973C75.1003 25.1439 74.9772 25.6953 74.959 26.3516L74.1523 26.0781C74.1523 24.793 74.3164 23.6536 74.6445 22.6602C74.9727 21.6576 75.4557 20.8691 76.0938 20.2949C76.7409 19.7207 77.5247 19.4336 78.4453 19.4336C78.6549 19.4336 78.8783 19.4518 79.1152 19.4883C79.3522 19.5156 79.5391 19.5566 79.6758 19.6113L79.6211 23.4258ZM89.4102 24.6152C89.4102 23.9316 89.2324 23.3893 88.877 22.9883C88.5306 22.5781 87.9837 22.373 87.2363 22.373C86.8079 22.373 86.4342 22.446 86.1152 22.5918C85.8053 22.7285 85.5638 22.929 85.3906 23.1934C85.2266 23.4577 85.1445 23.7767 85.1445 24.1504H81.166C81.166 23.2845 81.4212 22.4961 81.9316 21.7852C82.4512 21.0742 83.1803 20.5046 84.1191 20.0762C85.0671 19.6478 86.179 19.4336 87.4551 19.4336C88.5944 19.4336 89.6107 19.625 90.5039 20.0078C91.4062 20.3906 92.1126 20.9694 92.623 21.7441C93.1426 22.5189 93.4023 23.485 93.4023 24.6426V30.8906C93.4023 31.7292 93.4525 32.4082 93.5527 32.9277C93.653 33.4382 93.7988 33.8848 93.9902 34.2676V34.5H89.9707C89.7884 34.0898 89.6471 33.5794 89.5469 32.9688C89.4557 32.349 89.4102 31.7246 89.4102 31.0957V24.6152ZM89.9297 27.7734H87.8105C86.7624 27.7734 86.0013 27.9922 85.5273 28.4297C85.0534 28.8581 84.8164 29.3958 84.8164 30.043C84.8164 30.526 84.985 30.9316 85.3223 31.2598C85.6686 31.5788 86.138 31.7383 86.7305 31.7383C87.3138 31.7383 87.8197 31.6243 88.248 31.3965C88.6855 31.1595 89.0228 30.877 89.2598 30.5488C89.4967 30.2116 89.6107 29.9017 89.6016 29.6191L90.668 31.3418C90.5404 31.7155 90.349 32.1029 90.0938 32.5039C89.8477 32.8958 89.5332 33.265 89.1504 33.6113C88.7676 33.9486 88.3027 34.2266 87.7559 34.4453C87.2181 34.6641 86.5892 34.7734 85.8691 34.7734C84.9212 34.7734 84.0645 34.5866 83.2988 34.2129C82.5423 33.8301 81.9408 33.306 81.4941 32.6406C81.0475 31.9661 80.8242 31.196 80.8242 30.3301C80.8242 28.7806 81.3984 27.582 82.5469 26.7344C83.7044 25.8867 85.4089 25.4629 87.6602 25.4629H89.9297V27.7734ZM100.348 34.5H96.3691V19.707H100.102L100.348 22.8652V34.5ZM98.6523 26.6387C98.6523 25.1621 98.8939 23.8861 99.377 22.8105C99.8691 21.7259 100.553 20.8919 101.428 20.3086C102.303 19.7253 103.319 19.4336 104.477 19.4336C105.415 19.4336 106.231 19.6159 106.924 19.9805C107.626 20.3451 108.173 20.9375 108.564 21.7578C108.965 22.5781 109.166 23.6855 109.166 25.0801V34.5H105.174V25.0664C105.174 24.4375 105.083 23.9499 104.9 23.6035C104.718 23.2572 104.454 23.0156 104.107 22.8789C103.761 22.7331 103.333 22.6602 102.822 22.6602C102.312 22.6602 101.865 22.7604 101.482 22.9609C101.1 23.1523 100.781 23.4303 100.525 23.7949C100.27 24.1504 100.079 24.5697 99.9512 25.0527C99.8236 25.5267 99.7598 26.0417 99.7598 26.5977L98.6523 26.6387ZM117.314 34.7734C116.093 34.7734 115.049 34.4499 114.184 33.8027C113.327 33.1465 112.671 32.2533 112.215 31.123C111.759 29.9928 111.531 28.7122 111.531 27.2812V26.9941C111.531 25.4902 111.759 24.1732 112.215 23.043C112.671 21.9036 113.331 21.0195 114.197 20.3906C115.063 19.7526 116.111 19.4336 117.342 19.4336C118.508 19.4336 119.484 19.7617 120.268 20.418C121.051 21.0651 121.667 21.9538 122.113 23.084C122.56 24.2051 122.87 25.4811 123.043 26.9121V27.459C122.87 28.8262 122.555 30.0612 122.1 31.1641C121.653 32.2669 121.038 33.1465 120.254 33.8027C119.47 34.4499 118.49 34.7734 117.314 34.7734ZM118.326 31.5469C118.992 31.5469 119.538 31.3965 119.967 31.0957C120.404 30.7949 120.737 30.3757 120.965 29.8379C121.202 29.3001 121.343 28.6849 121.389 27.9922V26.3926C121.361 25.8092 121.279 25.2897 121.143 24.834C121.006 24.3691 120.814 23.9772 120.568 23.6582C120.322 23.3392 120.012 23.0931 119.639 22.9199C119.274 22.7467 118.846 22.6602 118.354 22.6602C117.67 22.6602 117.118 22.8516 116.699 23.2344C116.28 23.6172 115.975 24.1367 115.783 24.793C115.601 25.4401 115.51 26.1738 115.51 26.9941V27.2812C115.51 28.0742 115.601 28.7943 115.783 29.4414C115.965 30.0794 116.262 30.5898 116.672 30.9727C117.082 31.3555 117.633 31.5469 118.326 31.5469ZM121.279 34.5L120.883 31.2461V13.5H124.875V34.5H121.279ZM129.975 34.6504C129.464 34.6504 129.072 34.5091 128.799 34.2266C128.535 33.944 128.402 33.5931 128.402 33.1738C128.402 32.7454 128.535 32.3854 128.799 32.0938C129.072 31.793 129.464 31.6426 129.975 31.6426C130.494 31.6426 130.886 31.793 131.15 32.0938C131.424 32.3854 131.561 32.7454 131.561 33.1738C131.561 33.5931 131.424 33.944 131.15 34.2266C130.886 34.5091 130.494 34.6504 129.975 34.6504ZM141.691 34.7734C140.206 34.7734 138.975 34.4362 138 33.7617C137.025 33.0781 136.296 32.1758 135.812 31.0547C135.339 29.9336 135.102 28.7122 135.102 27.3906V26.8164C135.102 25.4857 135.343 24.2643 135.826 23.1523C136.309 22.0312 137.038 21.1335 138.014 20.459C138.989 19.7754 140.215 19.4336 141.691 19.4336C142.849 19.4336 143.861 19.6706 144.727 20.1445C145.602 20.6094 146.285 21.2474 146.777 22.0586C147.279 22.8607 147.552 23.7721 147.598 24.793H145.178C145.132 24.1823 144.959 23.6263 144.658 23.125C144.367 22.6237 143.965 22.2272 143.455 21.9355C142.954 21.6348 142.366 21.4844 141.691 21.4844C140.661 21.4844 139.85 21.7487 139.258 22.2773C138.674 22.806 138.26 23.4805 138.014 24.3008C137.777 25.112 137.658 25.9505 137.658 26.8164V27.3906C137.658 28.2565 137.777 29.0996 138.014 29.9199C138.251 30.7402 138.661 31.4147 139.244 31.9434C139.837 32.4629 140.652 32.7227 141.691 32.7227C142.293 32.7227 142.849 32.5996 143.359 32.3535C143.87 32.0983 144.289 31.752 144.617 31.3145C144.945 30.877 145.132 30.3802 145.178 29.8242H147.598C147.552 30.6992 147.256 31.515 146.709 32.2715C146.162 33.0189 145.451 33.625 144.576 34.0898C143.701 34.5456 142.74 34.7734 141.691 34.7734ZM149.785 26.9531C149.785 25.5221 150.059 24.2415 150.605 23.1113C151.152 21.9811 151.927 21.0879 152.93 20.4316C153.932 19.7663 155.122 19.4336 156.498 19.4336C157.893 19.4336 159.096 19.7663 160.107 20.4316C161.119 21.0879 161.894 21.9811 162.432 23.1113C162.979 24.2415 163.252 25.5221 163.252 26.9531V27.2676C163.252 28.6895 162.979 29.9701 162.432 31.1094C161.894 32.2396 161.119 33.1328 160.107 33.7891C159.105 34.4453 157.911 34.7734 156.525 34.7734C155.14 34.7734 153.941 34.4453 152.93 33.7891C151.927 33.1328 151.152 32.2396 150.605 31.1094C150.059 29.9701 149.785 28.6895 149.785 27.2676V26.9531ZM152.342 27.2676C152.342 28.2428 152.497 29.1452 152.807 29.9746C153.117 30.804 153.577 31.4694 154.188 31.9707C154.807 32.472 155.587 32.7227 156.525 32.7227C157.455 32.7227 158.225 32.472 158.836 31.9707C159.456 31.4694 159.921 30.804 160.23 29.9746C160.54 29.1452 160.695 28.2428 160.695 27.2676V26.9531C160.695 25.9779 160.54 25.0755 160.23 24.2461C159.921 23.4167 159.456 22.7513 158.836 22.25C158.216 21.7396 157.437 21.4844 156.498 21.4844C155.577 21.4844 154.807 21.7396 154.188 22.25C153.568 22.7513 153.103 23.4167 152.793 24.2461C152.492 25.0755 152.342 25.9779 152.342 26.9531V27.2676Z" fill="#21243D"/>
</svg>
